{"title":"Marilyn Manson - Antichrist Superstar - Custom Remaster by MC Lu","uid":8000588,"size":562016879,"categoryP":"audio","categoryS":"flac","magnet":"?xt=urn:btih:f61a3be5d3b6412877ef1e6a5274dfaa7ffd390e&amp;dn=Marilyn+Manson+-+Antichrist+Superstar+-+Custom+Remaster+by+MC+Lu&amp;tr=udp%3A%2F%2Ftracker.openbittorrent.com%3A80&amp;tr=udp%3A%2F%2Fopen.demonii.com%3A1337&amp;tr=udp%3A%2F%2Ftracker.coppersurfer.tk%3A6969&amp;tr=udp%3A%2F%2Fexodus.desync.com%3A6969","seeders":0,"leechers":1,"uploader":"beavis39","files":-1,"time":1357745197,"description":"Marilyn Manson - Antichrist Superstar - Custom Remaster by MC Lurken (a.k.a. Beavis39)\n\n\nCycle I: The Heirophant\n\n1 - Irresponsible Hate Anthem\n2 - The Beautiful People\n3 - Dried Up, Tied and Dead to the World\n4 - Tourniquet\n\nCycle II: Inauguration of the Worm\n\n5 - Little Horn\n6 - Cryptorchid\n7 - Deformography\n8 - Wormboy\n9 - Mister Superstar\n10 - Angel with the Scabbed Wings\n11 - Kinderfeld\n\nCycle III: Disintegrator Rising\n\n12 - Antichrist Superstar\n13 - 1996\n14 - Minute of Decay\n15 - The Reflecting God\n16 - Man That You Fear\n99 - Track 99\n\n\nSetup:\n-HP G72-250US\n-Intel Core i3 M350 2.27GHz\n-8Gb PC3-10700 RAM\n-Win7 64-bit SP1\n-SB X-Fi Surround 5.1\n\n\nProcess:\n-Original 16-bit/44.1kHz files joined in Wavelab 6\n-Remove DC offset and save as 64-bit float/44.1kHz\n-Resample to 384kHz in Wavelab w/crystal resampler ultra(slow) relax background priority\n-Create new 64-bit/384kHz master recording in Wavelab\n\n\nAs reported in Wavelab:\n-Original 16-bit/44.1kHz: Apparent Bit Resolution = 16, Peak = 0db\n-With DC Offset Removed: Apparent Bit Resolution = 20, Peak = 0.008db\n-64-bit/384kHz Recording: Apparent Bit Resolution = 39, Peak = 0.614db\n\n\n-Resample new 64-bit/384kHz master recording to 64-bit/44.1kHz in Wavelab w/crystal resampler ultra(slow) relax background priority\n-Apply MBIT+ 16-bit Dither in Wavelab w/Izotope Ozone 5 VST Plugin\n-Flac encode level 0 with Trader's Little Helper\n-Tag and pic with xrecode II\n\n\nfoobar2000 1.1.14a / Dynamic Range Meter 1.1.1\nlog date: 2013-01-08 16:51:31\n\n--------------------------------------------------------------------------------\nAnalyzed: ? / ?\n--------------------------------------------------------------------------------\n\nDR         Peak         RMS     Duration Track\n--------------------------------------------------------------------------------\nDR9     -0.07 dB   -11.17 dB      4:18 ?-01 - Irresponsible Hate Anthem\nDR10     0.00 dB   -10.83 dB      3:39 ?-02 - The Beautiful People\nDR9      0.00 dB   -11.22 dB      4:16 ?-03 - Dried Up, Tied and Dead to the World\nDR7      0.00 dB    -9.12 dB      4:29 ?-04 - Tourniquet\nDR9      0.00 dB   -10.58 dB      2:43 ?-05 - Little Horn\nDR12    -0.39 dB   -14.45 dB      2:44 ?-06 - Cryptorchid\nDR8      0.00 dB   -10.11 dB      4:31 ?-07 - Deformography\nDR8      0.00 dB    -9.99 dB      3:56 ?-08 - Wormboy\nDR8      0.00 dB   -10.46 dB      5:04 ?-09 - Mister Superstar\nDR10     0.00 dB   -12.11 dB      3:52 ?-10 - Angel with the Scabbed Wings\nDR8      0.00 dB    -9.54 dB      4:52 ?-11 - Kinderfeld\nDR9      0.00 dB   -10.62 dB      5:14 ?-12 - Antichrist Superstar\nDR7      0.00 dB    -8.54 dB      4:01 ?-13 - 1996\nDR9     -0.01 dB   -12.26 dB      4:44 ?-14 - Minute of Decay\nDR7      0.00 dB    -9.09 dB      5:36 ?-15 - The Reflecting God\nDR8      0.00 dB   -11.06 dB      6:11 ?-16 - Man That You Fear\nDR14   -12.30 dB   -29.47 dB      1:39 ?-99 - Track 99\n--------------------------------------------------------------------------------\n\nNumber of tracks:  17\nOfficial DR value: DR9\n\nSamplerate:        44100 Hz\nChannels:          2\nBits per sample:   16\nBitrate:           1411 kbps\nCodec:             PCM\n\n\n\nenjoy :)\n","torrent":{"xt":"urn:btih:f61a3be5d3b6412877ef1e6a5274dfaa7ffd390e","amp;dn":"Marilyn+Manson+-+Antichrist+Superstar+-+Custom+Remaster+by+MC+Lu","amp;tr":["udp%3A%2F%2Ftracker.openbittorrent.com%3A80","udp%3A%2F%2Fopen.demonii.com%3A1337","udp%3A%2F%2Ftracker.coppersurfer.tk%3A6969","udp%3A%2F%2Fexodus.desync.com%3A6969"],"infoHash":"f61a3be5d3b6412877ef1e6a5274dfaa7ffd390e","infoHashBuffer":{"type":"Buffer","data":[246,26,59,229,211,182,65,40,119,239,30,106,82,116,223,170,127,253,57,14]},"announce":[],"urlList":[]}}